<svg id="图层_1" data-name="图层 1" xmlns="http://www.w3.org/2000/svg" viewBox="0 0 457.1 331.5"><defs><style>.cls-1{fill:#666;fill-rule:evenodd;}</style></defs><title>矢量</title><polygon class="cls-1" points="359.35 45.65 363.1 47.8 366.8 50.15 370.35 52.5 373.85 55.05 377.2 57.6 380.45 60.3 383.55 63.05 386.6 66 389.45 68.95 392.25 72 394.9 75.15 397.5 78.45 399.9 81.8 402.25 85.25 404.4 88.8 406.55 92.55 408.2 95.75 409.8 99.05 411.25 102.35 412.65 105.7 413.85 109 415 112.35 415.95 115.7 416.85 119.1 417.55 122.45 418.15 125.85 418.6 129.25 419 132.7 419.2 136.1 419.35 139.55 419.3 143.05 419.2 146.55 419.1 150 418.9 153.5 418.55 157 418.1 160.5 421 162.2 423.85 163.95 426.6 165.75 429.3 167.55 430.2 163.25 430.9 159.05 431.4 154.8 431.7 150.6 431.75 148.45 431.75 146.35 431.65 142.15 431.25 137.95 430.75 133.75 429.95 129.5 428.95 125.3 428.35 123.2 427.7 121.1 426.3 116.9 424.6 112.7 422.8 108.5 420.7 104.3 419.6 102.2 418.45 100.1 416.15 96.25 413.75 92.55 411.2 88.9 408.6 85.35 405.75 81.85 402.85 78.5 399.8 75.2 396.65 72.05 392.65 68.3 390.55 66.45 388.45 64.7 386.25 62.9 384.05 61.2 379.5 57.85 374.7 54.6 372.25 53 369.8 51.5 367.2 49.95 364.65 48.5 359.35 45.65 359.35 45.65"/><polygon class="cls-1" points="374.7 82.35 376.5 84.6 378.25 86.95 379.9 89.35 381.55 91.85 383.05 94.35 384.5 96.95 385.9 99.55 387.25 102.25 388.5 105.05 389.7 107.95 390.75 110.8 391.75 113.7 392.6 116.6 393.35 119.5 394 122.4 394.55 125.3 394.9 128.2 395.25 131.1 395.4 134 395.55 136.95 395.5 139.85 395.4 142.8 395.15 145.7 394.85 148.7 395.95 149.25 401.15 151.6 406.3 154.15 406.45 151.15 406.55 148.15 406.45 145.15 406.3 142.2 405.95 139.2 405.55 136.2 405 133.2 404.4 130.3 403.55 127.3 402.65 124.3 401.6 121.3 400.5 118.4 399.2 115.4 397.85 112.5 396.3 109.5 394.75 106.6 392.7 103.2 390.65 99.95 388.4 96.7 386.1 93.65 383.6 90.55 381.05 87.6 378.35 84.7 375.6 81.95 374.7 82.35 374.7 82.35"/><polygon class="cls-1" points="310.15 14.55 313.4 15.4 316.65 16.35 320.1 17.3 323.55 18.35 330.25 20.5 336.75 22.75 343.15 25.2 349.3 27.65 355.3 30.3 361.1 33.05 363.95 34.45 366.8 35.95 372.2 38.9 374.85 40.4 377.5 42 380.05 43.55 382.6 45.2 387.5 48.55 392.2 52 396.75 55.55 401.1 59.2 405.3 63.05 408.7 66.4 411.6 69.45 414.45 72.6 417.2 75.8 419.85 79.15 422.35 82.45 424.8 85.9 427.1 89.4 429.35 93.05 431 95.95 432.55 98.85 434 101.75 435.45 104.75 436.7 107.65 437.95 110.6 439 113.5 440.05 116.5 440.9 119.4 441.75 122.35 442.4 125.25 443.05 128.25 443.5 131.15 443.95 134.15 444.2 137.05 444.45 140.05 443.55 158.95 443.25 161.15 442.9 163.4 442.25 166.4 441.5 169.4 440.65 172.4 439.8 175.5 442.3 177.6 444.75 179.8 447.1 182 449.4 184.25 450.45 181.35 451.5 178.55 452.45 175.65 453.3 172.85 454.05 169.95 454.7 167.15 455.3 164.25 455.85 161.45 456.25 158.55 456.6 155.75 456.85 152.85 457.05 150.05 457.1 147.15 457.1 144.35 457 141.55 456.85 138.75 456.55 135.85 456.2 133.05 455.75 130.2 455.25 127.4 454.6 124.5 453.9 121.7 453.1 118.9 452.25 116.1 451.25 113.2 450.2 110.4 449.05 107.6 447.85 104.8 446.5 101.95 445.15 99.15 443.7 96.35 442.15 93.55 439.55 89.2 436.9 85.05 434.05 81 431.1 77.05 427.95 73.1 424.7 69.35 421.25 65.7 417.75 62.15 415.5 60 413.2 57.9 408.5 53.85 406.05 51.85 403.55 49.9 398.45 46.15 395.75 44.25 393.05 42.45 390.3 40.65 387.55 38.95 384.65 37.2 381.75 35.55 378.8 33.9 375.8 32.35 372.7 30.75 369.55 29.2 363.15 26.25 356.45 23.4 349.65 20.75 346.1 19.4 342.55 18.15 338.95 16.9 335.3 15.75 331.55 14.55 327.8 13.45 324 12.35 320.15 11.35 314.55 9.9 309 8.55 297.9 6.2 292.3 5.15 286.75 4.2 281.15 3.35 275.65 2.6 264.45 1.35 258.85 0.9 253.3 0.55 247.65 0.2 242.05 0.05 230.85 0 225.15 0.05 219.5 0.25 213.8 0.5 208.2 0.95 202.5 1.4 196.85 1.95 191.15 2.6 185.55 3.45 179.85 4.3 174.15 5.25 168.45 6.3 162.8 7.5 157.05 8.75 151.35 10.1 145.65 11.55 139.95 13.1 134.4 14.6 128.95 16.25 123.6 17.9 118.4 19.7 113.25 21.45 108.2 23.35 103.25 25.3 98.4 27.35 93.55 29.35 88.9 31.5 84.3 33.65 79.85 35.95 75.4 38.25 71.15 40.65 66.9 43.1 62.85 45.65 63.55 46.1 67.4 43.75 71.35 41.5 75.4 39.25 79.55 37.15 83.75 35 88.1 33 92.5 31 97.05 29.15 101.6 27.25 106.3 25.5 111.05 23.75 115.9 22.1 120.8 20.45 125.85 18.9 130.95 17.35 136.2 15.95 141.65 14.45 147.15 13.1 158.15 10.65 163.6 9.5 169.1 8.55 174.6 7.6 180.1 6.85 185.5 6.1 191 5.45 196.45 4.9 201.95 4.45 212.85 3.8 218.25 3.65 223.75 3.6 234.55 3.65 245.45 4.1 250.85 4.45 256.25 4.9 261.65 5.45 267.1 6.15 272.45 6.8 277.85 7.65 288.65 9.6 299.35 11.85 304.75 13.1 310.15 14.55 310.15 14.55"/><polygon class="cls-1" points="27.1 117.8 23.25 114.3 21.4 112.5 19.65 110.75 18.9 113.85 18.35 116.95 17.9 120.05 17.6 123.2 17.4 126.3 17.4 129.5 17.5 132.7 17.75 135.9 18.1 139.1 18.6 142.3 19.2 145.5 20 148.75 20.9 151.95 21.95 155.25 23.15 158.5 24.5 161.8 25.85 164.85 27.3 167.9 28.85 170.9 30.55 173.85 32.3 176.7 34.15 179.55 36.1 182.3 38.15 185.05 39.35 186.6 40.65 188.2 41.95 189.7 43.35 191.25 44.7 192.7 46.15 194.2 47.6 195.65 49.15 197.15 52.25 199.95 55.5 202.7 57.15 204 58.9 205.35 62.45 208 59.9 206 57.5 203.95 55.15 201.85 52.95 199.7 50.75 197.45 48.7 195.15 46.65 192.8 44.8 190.4 42.9 187.85 41.15 185.3 39.4 182.65 37.85 179.95 36.3 177.15 34.9 174.3 33.55 171.35 32.3 168.4 31.25 165.7 30.3 163 29.45 160.3 28.7 157.65 27.95 154.95 27.4 152.25 26.85 149.55 26.5 146.95 26.15 144.25 25.9 141.55 25.75 138.85 25.7 136.15 25.65 133.45 25.8 130.75 25.95 128.05 26.3 125.4 26.55 121.55 27.1 117.8 27.1 117.8"/><polygon class="cls-1" points="12.95 103.25 11.3 101.2 9.8 99.2 8.3 97.1 6.9 95.05 5.2 99.25 3.75 103.55 2.5 107.85 1.55 112.2 0.8 116.5 0.3 120.85 0 125.25 0 129.65 0.15 134.05 0.55 138.45 1.15 142.9 2.05 147.4 3.15 151.85 4.5 156.35 6.05 160.85 7.9 165.45 8.6 167.15 9.4 168.9 11.05 172.3 12.8 175.65 14.65 178.95 16.6 182.15 18.7 185.35 20.85 188.45 23.2 191.5 26.05 195.05 29.1 198.5 32.25 201.85 35.6 205.15 39.05 208.3 42.7 211.4 46.5 214.4 48.45 215.85 50.5 217.35 54.55 220.1 56.65 221.45 58.85 222.85 63.25 225.45 65.5 226.7 67.85 228 70.15 229.2 72.55 230.45 74.95 231.6 77.45 232.8 82.5 235.05 87.75 237.25 93.25 239.35 98.8 241.35 98.9 241.05 98.2 240.75 97.45 240.45 96.6 240.05 95.65 239.65 94.55 239.15 93.95 238.85 93.65 238.7 93.4 238.6 92.1 238 91.4 237.65 90.75 237.35 89.95 236.95 89.55 236.75 89.35 236.65 89.2 236.6 87.6 235.8 86.7 235.35 85.85 234.95 84.1 234.05 82.15 233.05 80.1 232.05 77.95 230.95 75.75 229.85 72.9 228.35 70.2 226.9 67.55 225.4 65.1 223.9 62.65 222.3 60.3 220.8 58.05 219.2 55.9 217.65 53.75 216 51.8 214.4 49.9 212.7 48.15 211.05 44.8 207.65 43.25 205.9 41.85 204.2 40.45 202.45 39.2 200.8 37.95 199.25 36.85 197.9 35.75 196.55 34.8 195.35 33.9 194.2 33.15 193.25 32.4 192.3 31.75 191.45 31.15 190.7 30.7 190.15 30.25 189.6 29.95 189.2 29.7 188.85 29.6 188.7 27.65 186.05 25.85 183.4 24.1 180.7 22.5 178 20.9 175.2 19.45 172.4 18 169.5 16.7 166.6 14.65 161.8 12.95 157 11.5 152.25 10.4 147.55 9.5 142.85 8.95 138.2 8.6 133.55 8.6 128.95 10.1 114.25 10.8 110.8 11.75 107 12.95 103.25 12.95 103.25"/><polygon class="cls-1" points="46.05 162 44.7 157.8 43.65 153.7 42.85 149.6 42.3 145.5 41.95 141.4 41.85 137.3 42 133.2 42.45 129.2 38.65 126.7 35.1 124.15 34.85 128.3 34.95 132.5 35.3 136.7 35.95 140.95 36.8 145.2 38 149.5 39.4 153.8 41.15 158.2 42.3 160.9 43.6 163.6 44.95 166.2 46.4 168.8 47.9 171.3 49.55 173.8 51.25 176.2 53.1 178.65 53.75 178.35 52.55 176.4 51.45 174.45 50.35 172.45 49.4 170.45 48.45 168.35 47.6 166.25 46.75 164.1 46.05 162 46.05 162"/><path class="cls-1" d="M240,184.23l-2.45.1-2.35.25-2.35.3-2.2.4-2,.25-1.85.35-1.85.4-1.65.45-1.65.45-1.5.55-1.45.55-1.3.65-1.3.6-1.15.7-1.1.7-.95.8-1.75,1.65-.75.9-.55.95-3.6,11-.4.75-.25.85-.4,1.75v.15l-.15,1.4.05,1.6.1,1.6.3,1.65.4,1.65.65,1.7.75,1.7,1,1.75,1,1.8,1.3,1.85,1.35,1.8,1.6,1.85,1.7,1.9,1.95,2,2,1.95,2.25,2,2.35,2,2.55,2.05,2.55,1.8,2.7,1.85,2.75,1.8,2.85,1.85L240,251l3.05,1.8,3.05,1.7,3.2,1.75,3.2,1.65,3.35,1.65,3.35,1.6,3.55,1.65,3.55,1.55,3.65,1.6,3.7,1.5,3.85,1.55,4.65,1.4,4.85,1.7,6.7,1.9,3.3.9,1.65.4,1.7.45,1.6.35,1.65.4,3.3.75,3.2.7,1.6.3.8.15.85.2.75.1.8.15,1.6.3,3.2.5,6.3.9,6.2.6,1.5.1H334l.4,0,.8.1,3.1.2,3.3.05h1.65l1.7.05,1.5-.1.35-.05H348l2.95-.2.65-.1.7-.05,1.4-.1,1.35-.2.65-.1.7,0,1.2-.25,1.25-.2,2.4-.5,2.2-.6.5-.2.25-.1.3-.05,1.1-.3,1.9-.8.9-.45,1-.4.8-.5.4-.25.45-.2.75-.5.8-.45,1.35-1.1.6-.6.3-.3.15-.15.2-.1.5-.65.55-.6.5-.65.5-.6.7-1.45.6-1.4.5-1.8.15-.75h.05L382,255v-.85l.05-.8-.05-1.6-.1-.45,0-.4-.1-.8-.2-.85-.2-.8-.3-.9-.3-.85L380,245l-.45-.9-.15-.25-.1-.2-.2-.4-1.05-1.7-.35-.5-.3-.45-.65-.9-1.4-1.8-.8-1-.8-.9-.9-1-.85-.9-1-1-.5-.5-.25-.25-.2-.2-2.05-1.9-1.15-1-1.1-.95-1.2-1-1.2-1-2.7-2.15-2.75-2.1-2.85-2-2.85-2-3-1.95-3.05-1.9L343,212.53l-3.2-1.75-3.35-1.8-3.35-1.7-3.45-1.65-3.5-1.55-3.65-1.6-3.7-1.5-3.75-1.45-3.8-1.35-3.9-1.45-3.85-1.35-7.65-2.45-4.05-1.25-3.95-1.1-3.9-1.05-3.75-.9-3.8-.9-3.65-.75-3.6-.7-3.5-.55-3.5-.55-3.4-.4-3.35-.35-3.2-.2-3.2-.15-3.1-.05-3.05.05-2.9.15Zm19.9,54.45-2-2.5-1.65-2.45-1.4-2.4L253.7,229l-.9-2.4-.55-2.35-.3-2.3v-2.25l.85-1.3.95-1.15,1.1-1.15,1.25-1,1.35-1,1.45-.85,1.55-.85,1.75-.65,1.5-.7,1.6-.55,1.6-.55,1.7-.35,1.65-.35L272,209l1.75-.15,1.8,0,1.8-.05,1.85.15,1.85.15,1.95.35,1.9.35,2,.45,2,.55,2.1.65L293,212l1.95.7,1.9.7,1.9.85,1.8.8,1.75.95,1.7,1,1.7,1.1,1.55,1,1.55,1.2,1.5,1.25,1.45,1.35,1.35,1.35,1.35,1.45,1.3,1.5,1.3,1.6.75,1,.7,1.1,1.3,2.1.55,1,.5,1.1.9,2.1.6,2,.5,2.1.1,1,.1,1,.1,2.1-.6.85-.6.85-.7.8-.7.85-.8.7-.8.75-.9.65-.9.7-1,.55-1,.6-1.1.55-1.1.55-1.2.45-1.2.45-1.25.4-1.25.4-3.2.4-1.6.15-.8.05-.75.1H298.4l-3.2-.1-1.7-.2-1.65-.2-3.3-.6-1.7-.4-1.7-.45-1.7-.5-1.65-.5-1.75-.7-1.65-.7-3.15-1.5-1.55-.85-1.45-.8-1.45-.85-1.35-.85-1.4-1-1.3-1-2.45-2-2.35-2.2-1.1-1.15-1-1.1Zm62.95,9.75-.45,1.7-.3.85-.25.9-.45,1.2,1.45-4.65Z" transform="translate(-192 -132.28)"/><path class="cls-1" d="M390,271.33l10.5,8.5.35.05L389.45,412.73l-4.85.35-4.8.45-4.8.5-4.7.65L361,416.13l-4.6.85-4.55.95-4.6.95-4.5,1.1-4.5,1.15-4.4,1.3-4.45,1.3L325,425.18l-4.35,1.45-4.25,1.6-4.3,1.55-4.25,1.75-8.35,3.65-4.15,1.9-4.05,2.05-4.05,2.05-4,2.25L275.3,448l-3.95,2.4-3.85,2.55-7.65,5.25-3.8,2.7-3.7,2.85,318,0-3.55-2.7-3.5-2.55-3.6-2.5-3.55-2.4-3.65-2.4L548.85,449l-3.7-2.2-3.65-2.1-3.8-2.15-3.75-2-3.8-1.95-3.8-1.85-3.9-1.85-3.85-1.7-4-1.65-3.9-1.55-4.05-1.6-4-1.45-4.05-1.4-4-1.3-4.15-1.3-4.1-1.2-4.2-1.15-4.15-1-4.25-1.05-4.25-.9-4.3-.85L461,416l-4.4-.75-4.35-.6-4.4-.6-4.4-.45V270.23l-22.7-12.75L390,271.33Zm12.2-1.4h0Z" transform="translate(-192 -132.28)"/><path class="cls-1" d="M635.25,350.83l.15-.6.2-.55.1-.85.15-.8.15-1.6,0-1.7-.1-.85-.1-.8-.2-.9-.2-.85-.3-.9-.1-.25-.05-.2-.1-.4-.2-.5-.1-.25,0-.2-.35-.9-.85-1.8-.55-1-.5-.95-1.2-1.9-1.4-2-.75-1-.4-.5-.2-.25-.15-.2-1.7-2.1-.5-.55-.45-.5-.9-1-1-1.1-1-1.05-2.15-2.1-3.25-3-3.35-2.85L610.2,311l-3.6-2.65-3.85-2.65-4-2.55-4.1-2.5-4.2-2.35L586.05,296l-4.55-2.2-4.7-2.15-4.8-2.05-5-2.05-5.15-1.85-5.3-1.85-5.4-1.65-4.75-1.45-4.55-1.25-4.55-1.15-4.35-1-4.35-.9-4.25-.75-4.15-.65-4-.5-4.05-.45-3.85-.25-3.85-.15H500.7l-3.65.1-3.55.25-3.45.35-3.35.5-2.5.35-2.35.45-2.25.5-2.1.65-2,.6-1.85.75-1.75.8-1.6.9-1.5.85-1.35,1-1.25,1-1.1,1.15-1,1.15-.85,1.25-.7,1.3-.55,1.45-3.7,13.55-.2,1.4-.05,1.45.05,1.5.2,1.55.3,1.5.45,1.6.6,1.6.75,1.65.8,1.6.95,1.7,1.05,1.7,1.25,1.75,1.3,1.75,1.45,1.8,1.6,1.8,1.75,1.9,1.85,1.9,2.05,2,2.1,1.85,2.25,1.9,2.25,1.8,2.45,1.9L486,342l2.65,1.85,2.65,1.75,2.8,1.8,2.85,1.7,3.05,1.75,6.25,3.4,3.25,1.65,3.45,1.7,3.8,1.75L520.6,361l3.8,1.6,3.9,1.55,3.85,1.45,3.9,1.35,3.9,1.3,3.9,1.25,3.9,1,3.9,1.05,3.9.95,3.9.9,3.9.75,3.95.75,3.9.65,4,.6,2.3.2,2.3.25,2.2.2,2.2.2,2.1.1,2.1.15h1.5l.55.05,2,.1,1.9-.05h2l1.85-.1.9,0h.95l.85-.1.9-.05.85-.1.9-.05,1.7-.2,1.7-.15,1.55-.3,1.55-.3,1.5-.35,1.5-.35,1.4-.45,1.4-.4,1.3-.45,1.3-.45,1.2-.55,1.2-.55,1.1-.6,1.15-.6,1-.7.5-.35.55-.3.45-.4.5-.35,1-.7.85-.9.8-.85.75-.9.7-.85.6-.95.55-.9.5-1,.45-.9.45-1.5.4-1.5,2.1-7.35Zm-122.1-49.95,1.75-.65,1.8-.55,3.65-.85,1.8-.35,1.9-.15,3.8-.15,3.8.15,3.9.55,4,.85,4,1.25,2.05.65,1.95.8,1.9.8,1.85.95,1.75.9,1.65,1.05,1.6,1.05,1.55,1.2,1.4,1.15,1.35,1.3,1.3,1.3,1.25,1.45,1.1,1.45,1,1.55,1,1.6,1,1.7.65,1.4.65,1.5.5,1.45.45,1.5.25,1.4.1.7V328l0,.2.1.4.15,1.4.05,1.5-.85,1.4-.5.7-.1.05,0,.1-.1.2-.2.4-1,1.15-.3.25-.25.3-.5.6-1.1,1.1-.6.5-.3.25-.25.3-.35.2-.3.25-.6.5-1.25.9-.7.4-.35.2-.3.25-1.35.8-1.5.7-1.5.65-1.6.6-1.6.55-.9.2-.45.1-.4.15-1.75.4-.5.05-.45.1-.9.2-.5,0-.45.1-.9.2-3.5.3-1.75.1-1.7,0-1.7,0-1.7-.1-1.7-.15-1.6-.2-1.7-.3-1.65-.35-1.65-.4-1.6-.45-1.65-.55-1.6-.6-1.6-.65-1.55-.7-1.6-.8-1.5-.75-1.5-.8-1.35-.8-1.35-.9-1.25-.9-1.25-.95-1.1-.9-1.15-1.05-1.05-1-1.05-1.05-.9-1.05-.9-1.15-.8-1.15-.8-1.2-.7-1.15-.9-1.7-.75-1.6-.65-1.65-.45-1.6-.4-1.6-.25-1.6-.1-1.6,0-1.5.55-1.15.65-1.05.65-1.05.8-.95.8-1,.9-.9,1.9-1.65,1-.85,1.1-.75,2.3-1.35,2.55-1.25,1.35-.55,1.45-.45Z" transform="translate(-192 -132.28)"/></svg>