<?xml version="1.0" encoding="UTF-8" standalone="no"?>
<svg
   width="512"
   height="512"
   viewBox="0 0 512 512"
   style="overflow: visible;"
   data-svgdocument=""
   id="_BM0fv_aJ_ZZWWYek1ZRVa"
   class="fl-svgdocument"
   x="0"
   y="0"
   overflow="hidden"
   data-bbox="75.16734862081206 162.30671019952473 345.52740944751304 173.2329883943342"
   version="1.1"
   sodipodi:docname="logo.svg"
   inkscape:version="1.2 (dc2aeda, 2022-05-15)"
   xmlns:inkscape="http://www.inkscape.org/namespaces/inkscape"
   xmlns:sodipodi="http://sodipodi.sourceforge.net/DTD/sodipodi-0.dtd"
   xmlns="http://www.w3.org/2000/svg"
   xmlns:svg="http://www.w3.org/2000/svg">
  <defs
     id="defs17" />
  <sodipodi:namedview
     id="namedview15"
     pagecolor="#ffffff"
     bordercolor="#000000"
     borderopacity="0.25"
     inkscape:showpageshadow="2"
     inkscape:pageopacity="0.0"
     inkscape:pagecheckerboard="0"
     inkscape:deskcolor="#d1d1d1"
     showgrid="false"
     inkscape:zoom="0.70917838"
     inkscape:cx="84.604948"
     inkscape:cy="384.24747"
     inkscape:window-width="1827"
     inkscape:window-height="1207"
     inkscape:window-x="0"
     inkscape:window-y="23"
     inkscape:window-maximized="0"
     inkscape:current-layer="_BM0fv_aJ_ZZWWYek1ZRVa" />
  <g
     id="_CZsm_wCQ7c3IgxeylXQiM"
     transform="matrix(2.0766389,0,0,2.0756958,-69.003047,-287.64215)"
     data-uid="o_f6an3bhma_4">
    <path
       id="_nYrdhAiyt-4ci4TBfdLLz"
       d="m 47.69,90.25 c -0.069,0 -0.14,-0.006 -0.21,-0.02 L 12.758,83.791 c -0.624,-0.115 -1.036,-0.715 -0.921,-1.34 0.116,-0.623 0.717,-1.037 1.34,-0.92 l 33.245,6.164 -1.82,-22.307 -18.92,-53.09 c -0.214,-0.598 0.099,-1.256 0.697,-1.469 0.598,-0.213 1.255,0.099 1.469,0.697 L 46.819,64.76 c 0.033,0.094 0.055,0.191 0.062,0.293 l 1.955,23.953 c 0.028,0.357 -0.11,0.707 -0.376,0.947 -0.212,0.192 -0.487,0.297 -0.77,0.297 z"
       fill="#ffab4a"
       transform="matrix(2.387588,0,0,2.387588,24.424519,128.1212)"
       data-uid="o_f6an3bhma_5" />
    <path
       id="_7-TNYczNWwjvDZVmHMsj0"
       d="m 47.689,90.25 c -0.183,0 -0.367,-0.043 -0.54,-0.135 -0.561,-0.301 -0.772,-0.996 -0.474,-1.557 L 80.478,25.167 c 0.299,-0.56 0.995,-0.772 1.556,-0.474 0.56,0.299 0.771,0.996 0.474,1.556 L 48.705,89.641 c -0.207,0.388 -0.604,0.609 -1.016,0.609 z"
       fill="#ff6b4a"
       transform="matrix(2.387588,0,0,2.387588,23.893337,128.60823)"
       data-uid="o_f6an3bhma_6" />
    <path
       id="_HmtDiMQRhI5IEVQ9RVaWU"
       d="m 45.737,66.295 c -0.077,0 -0.155,-0.008 -0.233,-0.023 v 0 c -10e-4,0 -0.002,0 -0.002,0 -0.017,-0.004 -0.032,-0.008 -0.047,-0.012 v 0 c -0.003,0 -0.004,0 -0.006,-0.002 v 0 C 45.236,66.203 45.053,66.094 44.91,65.946 L 10.716,31.75 6.281,55.965 C 6.167,56.59 5.567,57.002 4.943,56.889 4.318,56.774 3.905,56.174 4.019,55.551 l 4.829,-26.37 c 0.076,-0.42 0.381,-0.763 0.788,-0.891 0.408,-0.127 0.854,-0.018 1.155,0.285 L 45.083,62.867 54.979,20.211 26.484,13.027 c -0.526,-0.132 -0.888,-0.614 -0.868,-1.156 0.02,-0.542 0.416,-0.997 0.949,-1.091 L 59.218,5.031 c 0.38,-0.067 0.769,0.062 1.033,0.341 0.266,0.28 0.373,0.675 0.286,1.051 l -2.81,12.109 24.046,6.062 c 0.391,0.099 0.702,0.396 0.819,0.782 0.116,0.386 0.022,0.806 -0.249,1.105 L 46.603,65.9 c -0.065,0.076 -0.141,0.143 -0.224,0.197 0,0.002 -10e-4,0.002 -10e-4,0.002 -10e-4,0 -10e-4,0 -0.002,0 l -10e-4,0.002 c -10e-4,0 -10e-4,0 -10e-4,0 -0.017,0.012 -0.032,0.021 -0.049,0.031 -0.001,0 -0.001,0 -0.001,0 -10e-4,0 -10e-4,0 -0.002,0.002 h -0.001 c -10e-4,0 -10e-4,0 -10e-4,0 -0.174,0.104 -0.375,0.161 -0.583,0.161 z M 57.209,20.773 47.855,61.096 79.354,26.356 Z M 32.262,12.112 55.499,17.97 57.905,7.597 Z"
       fill="#ff4a4a"
       transform="matrix(2.387588,0,0,2.387588,23.886181,128.81786)"
       data-uid="o_f6an3bhma_7" />
    <path
       id="_-g4FECiGjDeGPmN7mAvTs"
       d="m 12.968,83.811 c -0.145,0 -0.287,-0.027 -0.419,-0.078 -0.101,-0.041 -0.197,-0.094 -0.285,-0.162 -0.15,-0.117 -0.273,-0.273 -0.353,-0.457 -0.02,-0.047 -0.037,-0.096 -0.05,-0.143 L 4.046,56.078 C 3.91,55.607 4.085,55.103 4.484,54.82 L 55.687,18.434 c 0.455,-0.323 1.075,-0.273 1.473,0.117 0.398,0.39 0.457,1.01 0.143,1.47 L 16.579,79.428 45.194,64.131 c 0.166,-0.088 0.353,-0.135 0.542,-0.135 H 92.342 L 80.492,26.358 58.655,7.024 C 58.18,6.603 58.135,5.877 58.557,5.401 c 0.42,-0.475 1.147,-0.52 1.622,-0.099 l 22.075,19.545 c 0.156,0.139 0.272,0.317 0.335,0.516 L 95.006,64.8 c 0.109,0.348 0.047,0.729 -0.17,1.023 -0.217,0.297 -0.561,0.471 -0.927,0.471 H 46.024 l -32.492,17.37 c -0.051,0.027 -0.104,0.053 -0.159,0.074 -0.069,0.025 -0.141,0.045 -0.212,0.057 -0.064,0.012 -0.129,0.016 -0.193,0.016 z M 6.482,56.221 13.394,80.006 51.75,24.053 Z"
       fill="#ff954a"
       transform="matrix(2.387588,0,0,2.387588,23.988438,128.71541)"
       data-uid="o_f6an3bhma_8" />
    <path
       id="_lH_QpX3A2RgCO2VtGtMus"
       fill="#ff4a4a"
       transform="matrix(2.387588,0,0,2.387588,24.872274,128.08794)"
       data-type="circle"
       data-cx="55.538"
       data-cy="19.677"
       data-r="4.901"
       d="m 55.538,19.677 m -4.901,0 a 4.901,4.901 0 1 0 9.802,0 4.901,4.901 0 1 0 -9.802,0"
       data-uid="o_f6an3bhma_9" />
    <path
       id="_zwePDHih4GevDIq5w3Req"
       fill="#ff6b4a"
       transform="matrix(2.387588,0,0,2.387588,25.028173,128.27852)"
       data-type="circle"
       data-cx="23.472"
       data-cy="42.596"
       data-r="4.9"
       d="m 23.472,42.596 m -4.9,0 a 4.9,4.9 0 1 0 9.8,0 4.9,4.9 0 1 0 -9.8,0"
       data-uid="o_f6an3bhma_10" />
    <path
       id="__bp6clTczT-DT51RP1Js7"
       fill="#ff954a"
       transform="matrix(2.387588,0,0,2.387588,24.40012,129.35693)"
       data-type="circle"
       data-cx="45.736"
       data-cy="65.145"
       data-r="4.901"
       d="m 45.736,65.145 m -4.901,0 a 4.901,4.901 0 1 0 9.802,0 4.901,4.901 0 1 0 -9.802,0"
       data-uid="o_f6an3bhma_11" />
    <path
       id="_4I73MY35XrjAje_94NhqE"
       fill="#ffab4a"
       transform="matrix(2.387588,0,0,2.387588,23.846981,128.12213)"
       data-type="circle"
       data-cx="12.968"
       data-cy="82.662"
       data-r="4.901"
       d="m 12.968,82.662 m -4.901,0 a 4.901,4.901 0 1 0 9.802,0 4.901,4.901 0 1 0 -9.802,0"
       data-uid="o_f6an3bhma_12" />
    <path
       id="_Em4M5ckx9HQ3l5_UxbT-2"
       fill="#ffab4a"
       transform="matrix(2.387588,0,0,2.387588,24.331099,128.38638)"
       data-type="circle"
       data-cx="81.493"
       data-cy="25.552"
       data-r="4.901"
       d="m 81.493,25.552 m -4.901,0 a 4.901,4.901 0 1 0 9.802,0 4.901,4.901 0 1 0 -9.802,0"
       data-uid="o_f6an3bhma_13" />
    <path
       id="_MuuO6Z994e7NcdK4w4UM3"
       fill="#ff6b4a"
       transform="matrix(2.387588,0,0,2.387588,24.507439,129.46175)"
       data-type="circle"
       data-cx="47.69"
       data-cy="89.1"
       data-r="4.9"
       d="m 47.69,89.1 m -4.9,0 a 4.9,4.9 0 1 0 9.8,0 4.9,4.9 0 1 0 -9.8,0"
       data-uid="o_f6an3bhma_14" />
  </g>
  <path
     id="_Z0YrQ9icz1cHOvm_GQPbH"
     fill="#000000"
     text="EduChat"
     text-anchor="start"
     font-size="100px"
     letter-spacing="0"
     side="left"
     offset="0"
     dx="0"
     dy="0"
     space="preserve"
     href=""
     font-family="Bungee"
     font-scale="contain"
     x="0"
     y="0"
     data-fl-textpath=""
     data-uid="o_f6an3bhma_15"
     d="m 208.77037,288.25649 v 0 H 175.5687 q -1.35955,0 -1.96777,-0.72253 -0.60822,-0.72252 -0.60822,-2.33757 v 0 -55.08177 q 0,-1.61505 0.60822,-2.33758 0.60822,-0.72252 1.96777,-0.72252 v 0 h 33.20167 q 1.35955,0 1.96777,0.72252 0.60822,0.72253 0.60822,2.33758 v 0 9.94532 q 0,1.61505 -0.60822,2.33757 -0.60822,0.72253 -1.96777,0.72253 v 0 H 189.0211 v 6.54521 h 13.95329 q 1.35955,0 1.96777,0.72252 0.60822,0.72252 0.60822,2.33758 v 0 9.09529 q 0,1.61505 -0.60822,2.33757 -0.60822,0.72253 -1.96777,0.72253 v 0 H 189.0211 v 7.31023 h 19.74927 q 1.35955,0 1.96777,0.72252 0.60822,0.72253 0.60822,2.33758 v 0 9.94532 q 0,1.61505 -0.60822,2.33757 -0.60822,0.72253 -1.96777,0.72253 z m 37.70966,0 v 0 h -24.11415 q -1.35955,0 -1.96777,-0.72253 -0.60822,-0.72252 -0.60822,-2.33757 v 0 -55.08177 q 0,-1.61505 0.60822,-2.33758 0.60822,-0.72252 1.96777,-0.72252 v 0 h 24.11415 q 8.94441,0 13.27351,4.25014 4.32909,4.25013 4.32909,13.09042 v 0 26.52085 q 0,8.84028 -4.32909,13.09042 -4.3291,4.25014 -13.27351,4.25014 z m -1.932,-44.96645 h -8.51508 v 28.90093 h 8.51508 q 1.71733,0 2.54022,-1.02003 0.82288,-1.02003 0.82288,-3.1451 v 0 -20.65567 q 0,-2.12507 -0.82288,-3.1026 -0.82289,-0.97753 -2.54022,-0.97753 z m 72.48554,-13.17542 v 42.07635 q 0,3.91013 -0.966,7.09773 -0.96599,3.1876 -3.43465,5.44017 -2.46866,2.25258 -6.76198,3.52762 -4.29332,1.27504 -10.94796,1.27504 v 0 q -6.65465,0 -10.94797,-1.27504 -4.29332,-1.27504 -6.76197,-3.52762 -2.46866,-2.25257 -3.43466,-5.44017 -0.966,-3.1876 -0.966,-7.09773 v 0 -42.07635 q 0,-1.61505 0.60822,-2.33758 0.60822,-0.72252 1.96777,-0.72252 v 0 h 11.23419 q 1.35955,0 1.96777,0.72252 0.60822,0.72253 0.60822,2.33758 v 0 38.76124 q 0,1.70006 1.07333,2.8476 1.07333,1.14753 4.79421,1.14753 v 0 q 3.79243,0 4.86576,-1.14753 1.07333,-1.14754 1.07333,-2.8476 v 0 -38.76124 q 0,-1.61505 0.60822,-2.33758 0.60822,-0.72252 1.96777,-0.72252 v 0 h 10.87641 q 1.35955,0 1.96777,0.72252 0.60822,0.72253 0.60822,2.33758 z m 43.79186,58.14187 v 0 h -17.4595 q -8.94442,0 -13.27351,-4.25014 -4.3291,-4.25014 -4.3291,-13.09042 v 0 -26.43585 q 0,-8.84028 4.3291,-13.13292 4.32909,-4.29264 13.27351,-4.29264 v 0 h 17.4595 q 1.35955,0 1.96777,0.72252 0.60822,0.72253 0.60822,2.33758 v 0 10.28533 q 0,1.61505 -0.60822,2.33757 -0.60822,0.72253 -1.96777,0.72253 v 0 h -14.38262 q -2.21822,0 -3.29155,1.06253 -1.07333,1.06254 -1.07333,3.1876 v 0 20.23065 q 0,2.12507 1.07333,3.1026 1.07333,0.97754 3.29155,0.97754 v 0 h 14.38262 q 1.35955,0 1.96777,0.72252 0.60822,0.72252 0.60822,2.33757 v 0 10.11533 q 0,1.61505 -0.60822,2.33757 -0.60822,0.72253 -1.96777,0.72253 z m 24.32881,0 v 0 h -11.09108 q -1.35955,0 -1.96777,-0.72253 -0.60822,-0.72252 -0.60822,-2.33757 v 0 -55.08177 q 0,-1.61505 0.60822,-2.33758 0.60822,-0.72252 1.96777,-0.72252 v 0 h 11.09108 q 1.35955,0 1.96777,0.72252 0.60822,0.72253 0.60822,2.33758 v 0 18.44559 h 11.94974 v -18.44559 q 0,-1.61505 0.60822,-2.33758 0.60822,-0.72252 1.96777,-0.72252 v 0 h 11.09107 q 1.35955,0 1.96777,0.72252 0.60822,0.72253 0.60822,2.33758 v 0 55.08177 q 0,1.61505 -0.60822,2.33757 -0.60822,0.72253 -1.96777,0.72253 v 0 h -11.09107 q -1.35955,0 -1.96777,-0.72253 -0.60822,-0.72252 -0.60822,-2.33757 v 0 -18.87061 h -11.94974 v 18.87061 q 0,1.61505 -0.60822,2.33757 -0.60822,0.72253 -1.96777,0.72253 z m 59.31936,-43.3514 v 0 l -3.3631,12.92042 h 11.23418 l -3.3631,-12.92042 q -0.28622,-0.76502 -0.60822,-1.10503 -0.322,-0.34001 -0.75133,-0.34001 v 0 h -1.78888 q -0.42933,0 -0.75133,0.34001 -0.322,0.34001 -0.60822,1.10503 z m -4.07866,28.39092 v 11.90038 q 0,1.61505 -0.60822,2.33757 -0.60822,0.72253 -1.96777,0.72253 v 0 h -10.51863 q -1.35955,0 -1.96777,-0.72253 -0.60822,-0.72252 -0.60822,-2.33757 v 0 -22.44072 q 0,-2.55008 0.67977,-5.86519 0.67978,-3.31511 2.11089,-7.73525 v 0 l 6.22531,-19.29562 q 0.42933,-1.44505 1.32377,-2.12507 0.89444,-0.68002 2.32555,-0.68002 v 0 H 456.638 q 1.35955,0 2.25399,0.68002 0.89445,0.68002 1.32378,2.12507 v 0 l 6.22531,19.29562 q 1.43111,4.42014 2.11088,7.73525 0.67978,3.31511 0.67978,5.86519 v 0 22.44072 q 0,1.61505 -0.60822,2.33757 -0.60822,0.72253 -1.96777,0.72253 v 0 h -10.80486 q -1.4311,0 -2.11088,-0.72253 -0.67977,-0.72252 -0.67977,-2.33757 v 0 -11.90038 z m 59.1047,14.96048 v 0 h -11.59196 q -1.35955,0 -1.96777,-0.72253 -0.60822,-0.72252 -0.60822,-2.33757 v 0 -41.73634 h -10.51864 q -1.35955,0 -1.96777,-0.72253 -0.60822,-0.72252 -0.60822,-2.33757 v 0 -10.28533 q 0,-1.61505 0.60822,-2.33758 0.60822,-0.72252 1.96777,-0.72252 v 0 h 37.78121 q 1.35955,0 1.96777,0.72252 0.60822,0.72253 0.60822,2.33758 v 0 10.28533 q 0,1.61505 -0.60822,2.33757 -0.60822,0.72253 -1.96777,0.72253 v 0 h -10.51863 v 41.73634 q 0,1.61505 -0.60822,2.33757 -0.60822,0.72253 -1.96777,0.72253 z"
     style="stroke-width:0.779897" />
</svg>
